<svg width="1000" height="1000" viewBox="0 0 1024 1024" fill="none" xmlns="http://www.w3.org/2000/svg">
<style>
  g {
    transform-origin: center;
  }

  g:nth-of-type(1) {
    animation: rotate 90s linear infinite;
  }

  g:nth-of-type(2) {
    animation: rotate 90s linear reverse infinite;
  }

  g:nth-of-type(3) {
    animation: rotate 60s linear infinite;
  }

  g:nth-of-type(4) {
    animation: rotate 60s linear reverse infinite;
  }

  @keyframes rotate {
    to {
      rotate: 1turn;
    }
  }
</style>
<g style="mix-blend-mode:difference">
<path d="M430.774 895.14L184.351 725.778L129.86 431.774L299.222 185.351L593.226 130.86L839.649 300.222L894.14 594.226L724.778 840.649L430.774 895.14Z" fill="white"/>
</g>
<g style="mix-blend-mode:difference">
<path d="M512 890.137L243.772 779.034L132.668 510.805L243.772 242.577L512 131.473L780.228 242.577L891.332 510.805L780.228 779.034L512 890.137Z" fill="white"/>
</g>
<g style="mix-blend-mode:difference">
<path d="M512.456 791.136L315.784 709.672L234.32 513L315.784 316.328L512.456 234.864L709.128 316.328L790.593 513L709.128 709.672L512.456 791.136Z" fill="white"/>
</g>
<g style="mix-blend-mode:difference">
<path d="M422.839 729.356L296.1 602.618V423.382L422.839 296.644H602.074L728.812 423.382V602.618L602.074 729.356H422.839Z" fill="white"/>
</g>
</svg>
